<mxfile host="app.diagrams.net" modified="2024-06-27T17:15:43.370Z" agent="Mozilla/5.0 (Windows NT 10.0; Win64; x64) AppleWebKit/537.36 (KHTML, like Gecko) Chrome/126.0.0.0 Safari/537.36" etag="H3UcDoMOqq0hosZz9yL3" version="24.6.4" type="github">
  <diagram name="Trang-1" id="ok2WKsnp69EQOrZXuCaC">
    <mxGraphModel dx="955" dy="1675" grid="1" gridSize="10" guides="1" tooltips="1" connect="1" arrows="1" fold="1" page="1" pageScale="1" pageWidth="827" pageHeight="1169" math="0" shadow="0">
      <root>
        <mxCell id="0" />
        <mxCell id="1" parent="0" />
        <mxCell id="cC7Jj6LlgXi6CUbNM-gN-11" style="edgeStyle=orthogonalEdgeStyle;rounded=0;orthogonalLoop=1;jettySize=auto;html=1;entryX=0;entryY=0.5;entryDx=0;entryDy=0;" edge="1" parent="1" source="cC7Jj6LlgXi6CUbNM-gN-2" target="cC7Jj6LlgXi6CUbNM-gN-9">
          <mxGeometry relative="1" as="geometry" />
        </mxCell>
        <mxCell id="cC7Jj6LlgXi6CUbNM-gN-2" value="&lt;b&gt;&lt;font style=&quot;font-size: 18px;&quot;&gt;HTML&lt;/font&gt;&lt;/b&gt;&lt;div&gt;&lt;font style=&quot;font-size: 15px;&quot;&gt;(&lt;/font&gt;&lt;strong style=&quot;color: rgb(65, 65, 65); font-family: &amp;quot;Helvetica Neue&amp;quot;, Helvetica, Arial, sans-serif; font-size: 17.5px; text-align: start; background-color: rgb(255, 255, 255);&quot;&gt;HyperText Markup Language&lt;/strong&gt;&lt;/div&gt;&lt;div&gt;&lt;span style=&quot;font-size: 15px; background-color: initial;&quot;&gt;Ngôn ngữ đánh dấu văn bản)&lt;/span&gt;&lt;/div&gt;" style="rounded=1;whiteSpace=wrap;html=1;" vertex="1" parent="1">
          <mxGeometry x="330" y="140" width="256" height="100" as="geometry" />
        </mxCell>
        <mxCell id="cC7Jj6LlgXi6CUbNM-gN-4" value="Heading tags" style="ellipse;whiteSpace=wrap;html=1;aspect=fixed;" vertex="1" parent="1">
          <mxGeometry x="280" y="-20" width="80" height="80" as="geometry" />
        </mxCell>
        <mxCell id="cC7Jj6LlgXi6CUbNM-gN-5" value="Form tags" style="ellipse;whiteSpace=wrap;html=1;aspect=fixed;" vertex="1" parent="1">
          <mxGeometry x="560" y="-20" width="80" height="80" as="geometry" />
        </mxCell>
        <mxCell id="cC7Jj6LlgXi6CUbNM-gN-6" value="List tags" style="ellipse;whiteSpace=wrap;html=1;aspect=fixed;" vertex="1" parent="1">
          <mxGeometry x="260" y="310" width="80" height="80" as="geometry" />
        </mxCell>
        <mxCell id="cC7Jj6LlgXi6CUbNM-gN-7" value="Pagragraph tags" style="ellipse;whiteSpace=wrap;html=1;aspect=fixed;" vertex="1" parent="1">
          <mxGeometry x="560" y="310" width="100" height="100" as="geometry" />
        </mxCell>
        <mxCell id="cC7Jj6LlgXi6CUbNM-gN-8" value="Common tags" style="ellipse;whiteSpace=wrap;html=1;aspect=fixed;" vertex="1" parent="1">
          <mxGeometry x="120" y="150" width="80" height="80" as="geometry" />
        </mxCell>
        <mxCell id="cC7Jj6LlgXi6CUbNM-gN-9" value="Orthers" style="ellipse;whiteSpace=wrap;html=1;aspect=fixed;" vertex="1" parent="1">
          <mxGeometry x="720" y="150" width="80" height="80" as="geometry" />
        </mxCell>
        <mxCell id="cC7Jj6LlgXi6CUbNM-gN-12" value="&lt;div style=&quot;text-align: center;&quot;&gt;&lt;b style=&quot;background-color: initial;&quot;&gt;&lt;font style=&quot;font-size: 15px;&quot;&gt;Bố cục:&amp;nbsp;&lt;/font&gt;&lt;/b&gt;&lt;/div&gt;&lt;div&gt;1. &amp;lt;!DOCTYPE html&amp;gt; khai báo để browser biết đây là HTML&lt;div&gt;2.&amp;nbsp;&amp;lt;html&amp;gt;&lt;/div&gt;&lt;/div&gt;&lt;div&gt;3. &amp;lt;head&amp;gt;&lt;/div&gt;&lt;div&gt;4. &amp;lt;title&amp;gt;&lt;/div&gt;&lt;div&gt;5. &amp;lt;body&amp;gt;&lt;/div&gt;" style="rounded=1;whiteSpace=wrap;html=1;align=left;" vertex="1" parent="1">
          <mxGeometry x="1020" y="-220" width="330" height="120" as="geometry" />
        </mxCell>
        <mxCell id="cC7Jj6LlgXi6CUbNM-gN-13" value="&lt;div style=&quot;text-align: center;&quot;&gt;&lt;b style=&quot;background-color: initial;&quot;&gt;&lt;font style=&quot;font-size: 15px;&quot;&gt;Giao diện:&amp;nbsp;&lt;/font&gt;&lt;/b&gt;&lt;/div&gt;&lt;div&gt;1. header&lt;div&gt;2. footer&lt;/div&gt;&lt;/div&gt;&lt;div&gt;3. menu&lt;/div&gt;&lt;div&gt;4. sidebar&lt;/div&gt;&lt;div&gt;5. main content&lt;/div&gt;" style="rounded=1;whiteSpace=wrap;html=1;align=left;" vertex="1" parent="1">
          <mxGeometry x="1020" y="-80" width="330" height="120" as="geometry" />
        </mxCell>
        <mxCell id="cC7Jj6LlgXi6CUbNM-gN-14" value="&lt;div style=&quot;text-align: center;&quot;&gt;&lt;b style=&quot;background-color: initial;&quot;&gt;&lt;font style=&quot;font-size: 15px;&quot;&gt;Phân biệt HTML ELEMENTS và HTML ATTRIBUTES&amp;nbsp;&lt;/font&gt;&lt;/b&gt;&lt;/div&gt;&lt;div&gt;1. ELEMENTS là html, body, div, head, h1, h2&lt;/div&gt;&lt;div&gt;2. ATRIBUTES là name, type, id, value&lt;/div&gt;" style="rounded=1;whiteSpace=wrap;html=1;align=left;" vertex="1" parent="1">
          <mxGeometry x="1020" y="60" width="330" height="120" as="geometry" />
        </mxCell>
      </root>
    </mxGraphModel>
  </diagram>
</mxfile>
